<svg width="562.5" height="444" xmlns="http://www.w3.org/2000/svg"><title>Layer 1</title><path d="M383.5 6.75q6.5-.25 7 .25l.5.5-1.75 4.75q-1.75 4.75-8.5 27L374 61.5 341.5 65q-32.5 3.5-45 7t-58 19q-45.5 15.5-93 38.5t-58.5 31l-11 8-4.5-2q-4.5-2-27-12.5t-30-13.5l-7.5-3 12-4.5 12-4.5 18.75 10.25L68.5 149l8.25-4.75Q85 139.5 112 127t32-14.25l5-1.75-4-5.75q-4-5.75-8-12L133 87l10-3.75 10-3.75 5.5 5.5q5.5 5.5 10.5 10l5 4.5 6-2q6-2 42.5-15t38.25-13.75l1.75-.75 3-16.5 3-16.5 5.25-2.25q5.25-2.25 6.75-2.5L282 30l.25 2q.25 2 .5 15.25L283 60.5l11-2q11-2 31-6.5t29.5-5.5l9.5-1 .75-4.25q.75-4.25 6.5-19.25L377 7l6.5-.25z"/><path d="M124.5 91.5h1.5l4.75 5.25q4.75 5.25 4.75 6.75v1.5l-2.25 1.25Q131 107.5 104 121t-29.5 15q-2.5 1.5-4 2.5l-1.5 1-4-.5q-4-.5-14.25-6.25L40.5 127l.25-1.25q.25-1.25 9.75-5.25t16.5-7 16.5-7q9.5-4 24.5-9.5t16.5-5.5zM360.25 70.25q8.25-1.25 10.5-.5l2.25.75 2.25 5.75Q377.5 82 394 109.5t21 35.5q4.5 8 18 30t19.75 32.5L459 218l3.75-3.5q3.75-3.5 8.5-5.75T484 206.5q8 0 14.25 4.25T508.5 224q4 9 1.5 19.5t-3 11.5l-.5 1-5.75 2.75Q495 261.5 482 265l-13 3.5-15-7.5q-15-7.5-23.5-14.5t-14.25-16.25Q410.5 221 395 195.5T374 161q-5.5-9-24.25-41.25t-24-31L320.5 90l2.5 5q2.5 5 19.5 33.5t22 37q5 8.5 18.25 31.25T405.5 232q9.5 12.5 14 16.5t22 15.25L459 275l-8.5.25q-8.5.25-26-11.25t-27.25-24.75q-9.75-13.25-14-23.25L379 206l-2.75-2.5Q373.5 201 360 179t-31.75-53.25Q310 94.5 304.5 95.25L299 96l4.75 9q4.75 9 24.75 43.5t26 44q6 9.5 21 34t20.75 29.75Q402 261.5 417.5 272t14 12l-1.5 1.5-4.75-.75q-4.75-.75-18.5-11T385.5 257q-7.5-6.5-15.75-18.25T344.5 198.5q-17-28.5-22-37T302.75 127Q288 101 282 102.5l-6 1.5 3.25 6.5q3.25 6.5 19.75 34t22.5 37q6 9.5 21.25 35t18 28q2.75 2.5 8.5 9.75t16.25 15.25q10.5 8 19 13.5l8.5 5.5-10.5.5-10.5.5-9 5.5q-9 5.5-55 27t-77 28.5q-31 7-40.5 11t-11 4.5q-1.5.5-13 0l-11.5-.5-4.75 8.25q-4.75 8.25-9 14t-6.25 6l-2 .25 3.5-6.75q3.5-6.75 8.25-15T167 359q-2.5-5-6.75-20.25t-11-18.5Q142.5 317 138.5 308t-7.25-14.25L128 288.5l-4-1.5q-4-1.5-12-2.75l-8-1.25.25-8q.25-8 3.75-29.5l3.5-21.5-5.5-9q-5.5-9-7-19.5L97.5 185l8.25 17.25q8.25 17.25 10 19.5T115 240q-2.5 16-2.5 28t4.75 13.25q4.75 1.25 11 5.5t9.5 9l3.25 4.75 14.75 2.25L170.5 305l-2.25 1.25Q166 307.5 165 307.5t-9.75 3.75L146.5 315l1.75 1.75q1.75 1.75 7 2t7.75 7.75q2.5 7.5 7 19t8.25 13.75Q182 361.5 195 359t26.5-13q13.5-10.5 22.5-19.5t19.25-22.75q10.25-13.75 19-27t11.5-11.5q2.75 1.75-7.25 16.25t-27.75 35.75L241 338.5l9.5-2 9.5-2 6.25-9.75q6.25-9.75 18.25-28.25t17.25-22.75q5.25-4.25 7.25-3.5l2 .75-3.5-6.75q-3.5-6.75-10.75-17.5T277.5 217.5q-12-18.5-20-30t-20.5-31q-12.5-19.5-18.75-24.75L212 126.5l-2.25 2.25q-2.25 2.25 8.75 18.75T236 174q6.5 10 9.25 15.5L248 195l2.75 2.5q2.75 2.5 12.75 16t20.75 31L295 262l-6-3.25q-6-3.25-13.5-9.75t-16.75-19.25Q249.5 217 237.5 198.5T217 168q-8.5-12-15.75-22.75L194 134.5l-7.5 2.5q-7.5 2.5-34.5 15.5T108 173q-17 7.5-18 5t8.5-10q9.5-7.5 19.5-14t47.5-21.5q37.5-15 58.5-23t74.5-23q53.5-15 61.75-16.25zM234.5 119q3.5-.5 7.75 5.75t9 14q4.75 7.75 9.5 14.5t11 16q6.25 9.25 10.5 15.5t12 18.5 12 18.5q4.25 6.25 10.5 15.5t9.5 14.5q3.25 5.25 6.5 8.5L344 271.5l8 8-4.75.75Q342.5 281 338 290l-6.75 13.5L329 308l-8 3-8 3 2.75-5.5q2.75-5.5 8-14.75T331 281.5q2-3 5.5-2.75l3.5.25-2-2.25q-2-2.25-10.75-10.5t-17-21.5q-8.25-13.25-12-19t-10-15.75q-6.25-10-8.5-12t-6.75-8.5q-4.5-6.5-8-12.5t-9.25-14.25q-5.75-8.25-9.5-14t-9.5-14q-5.75-8.25-7.25-11.5t0-3.5l1.5-.25 3.5-.5zm23-7.75l7.5-1.75 3.25 5.25q3.25 5.25 15.25 25.75t17.5 28q5.5 7.5 18 29t21.5 36q9 14.5 14 21t10.25 11.25q5.25 4.75 14.75 12.75l9.5 8-2.5.5q-2.5.5-7.5-.5l-5-1-9.25-8.75Q355.5 268 351.5 263.5t-11.5-14q-7.5-9.5-15.5-22t-12.5-19-12.5-19q-8-12.5-11-17.5t-9.5-14.5q-6.5-9.5-11-16T256.75 124L250 113l7.5-1.75zM310 277.5q3.5-4.5 3.75-4.25t2.25.75l2 .5 2 .25q2 .25.75 3.25T314 290.5q-5.5 9.5-8.5 14t-4.5 7q-1.5 2.5-3.25 6.5l-1.75 4-4 1.25q-4 1.25-8.5 2.5L279 327l1.25-2.5q1.25-2.5 7.75-14t9.5-15.5q3-4 6-8.5t6.5-9zm39-196q1 0 4.75 5.75t17 28.5q13.25 22.75 16 27.5t13.75 24.25q11 19.5 20.25 34.25T440 224.5q10 8 13.25 9.75l3.25 1.75 4.25 7.25 4.25 7.25 3.5 1.5q3.5 1.5 13.5 0t13.25-4.75q3.25-3.25 4.25-8.75t-1.75-10.75Q495 222.5 491 220.5t-10.5-.5q-6.5 1.5-7.25 2.25l-.75.75-.5 1q-.5 1 1 9.5t3.25 9.75q1.75 1.25 8.5 0t7.25-4.75q.5-3.5-.75-4.75t-5.5 0q-4.25 1.25-4.75-.25t.25-2.25l.75-.75h5q5 0 6.75 1.75t1 6.5q-.75 4.75-5.25 6.75t-10 .5q-5.5-1.5-8.25-5.75T470 228q1.5-8 4.25-9.75T481 216q4-.5 10.75 2.25T501 225q2.5 4 1 12.5t-7.25 13.75Q489 256.5 488 257l-1 .5-11-1.5q-11-1.5-25.75-10.75T426 224.5q-9.5-11.5-24.25-37.25t-18.5-31.5q-3.75-5.75-19-32.5t-18.5-32q-3.25-5.25-2.5-7T346 82l2-.5h1zm6.25 200.75l.25-.25.25.25q.25.25 7.25 1.5l7 1.25v1q0 1-2.5 2.25t-11.25 6L347.5 299l.5-2.5q.5-2.5 3.75-8.25t3.5-6zm8-201.75q-.25-1.5 2.5-.5t10 13.25q7.25 12.25 9.5 16t9.5 16q7.25 12.25 10.5 17t13.5 23q10.25 18.25 13 22.5t7 10.5q4.25 6.25 6.5 10t3 7.5l.75 3.75-7.25-8.75Q434.5 202 431.5 196.5t-9.25-15.75q-6.25-10.25-8.5-14t-7-11q-4.75-7.25-6.5-10.5t-11-19.5q-9.25-16.25-11.5-20L371 94.5l-4.5-7.5-1.5-2.5q-1.5-2.5-1.75-4z"/><path d="M157.5 173.5q6.5 0 11.75 1.75t5.5 2l.25.25-13 .5q-13 .5-18 2.5t-9.5 4q-4.5 2-13 1.5t-9.5-1l-1-.5 12.5-3q12.5-3 17.5-5t7.5-2.5q2.5-.5 9-.5zM144 260.5q3 0 5.25 2.25t1.5 6q-.75 3.75-1.25 5t-6 3q-5.5 1.75-14.75 1t-9-1.5l.25-.75 1.5-1q1.5-1 3.5-1.5t12.75-1.25l10.75-.75-.75-3.25q-.75-3.25-5.75-3.5t-4.5-1.5q.5-1.25 2-1.75l1.5-.5h3zM162 193.5q3 0 11 2t9 3l1 1-10.5.5q-10.5.5-13 .5t-8.25 1.25q-5.75 1.25-7 8.25l-1.25 7 8.5-2.75q8.5-2.75 12-3.75l3.5-1-4.5 3.5q-4.5 3.5-7.5 4.75t-3 2.25v1l3 .75q3 .75 9.5 1.75l6.5 1-6.5.5q-6.5.5-16.5-.5t-12-1h-2l-1.5-1q-1.5-1 1-2t0-3q-2.5-2-3.75-4.25t-2.5-6q-1.25-3.75-3.75-5.75t-3-3.25L120 197l1.5.25q1.5.25 12-.25t18-2q7.5-1.5 10.5-1.5zM150.5 184.5q4.5 0 14.5 1l10 1 1.75 1.25q1.75 1.25 2 2.25t-6.25-.75Q166 187.5 156 188t-16.75 2.25L132.5 192l.25-1.25Q133 189.5 136 188t6.5-2.5q3.5-1 8-1zM197 258.5q4 0 6.25 2.25T206 264q.5 1 0 7t-2.25 8.25Q202 281.5 198 283.5t-8.5 3q-4.5 1-23.5 1.5t-19.25-.75l-.25-1.25 2.75-2.25q2.75-2.25 4.25-2.75t20.5-1q19-.5 23-2.5t4.75-3.25q.75-1.25 0-5.5T200.5 264q-.5-.5-5.75.25T189 266q-.5 1-.25 2t3.25 1.5q3 .5 3 1.5t-4.25 1h-4.25l-.5-.5q-.5-.5.25-4.25T190 261q3-2.5 7-2.5zM252.5 41.25L257 40l-.75 7q-.75 7-2 10.75L253 61.5 242 65q-11 3.5-20.5 6.5t-15 5q-5.5 2-16.75 7.25t-12.5 5.5l-1.25.25-5.75-5.75q-5.75-5.75-6-7.25L164 75l6-2.25q6-2.25 15.5-6.25t28.5-11q19-7 26.5-10t12-4.25zM348.5 6.5q11.5 0 15 .25L367 7l-1 2.75q-1 2.75-2.75 5.5T358 26q-3.5 8-3.75 9.5L354 37l-14 2.75q-14 2.75-30.5 5.5L293 48l-1.5-11-1.5-11 6-2.25q6-2.25 15.5-6.25t14-6q4.5-2 6.5-3t3.5-1.5q1.5-.5 13-.5z"/></svg>