<?xml version="1.0"?><svg width="562.5" height="444" xmlns="http://www.w3.org/2000/svg">
 <g>
  <title>Layer 1</title>
  <path d="m383.5,6.75q6.5,-0.25 7,0.25l0.5,0.5l-1.75,4.75q-1.75,4.75 -8.5,27l-6.75,22.25l-32.5,3.5q-32.5,3.5 -45,7q-12.5,3.5 -58,19q-45.5,15.5 -93,38.5q-47.5,23 -58.5,31l-11,8l-4.5,-2q-4.5,-2 -27,-12.5q-22.5,-10.5 -30,-13.5l-7.5,-3l12,-4.5l12,-4.5l18.75,10.25l18.75,10.25l8.25,-4.75q8.25,-4.75 35.25,-17.25q27,-12.5 32,-14.25l5,-1.75l-4,-5.75q-4,-5.75 -8,-12l-4,-6.25l10,-3.75l10,-3.75l5.5,5.5q5.5,5.5 10.5,10l5,4.5l6,-2q6,-2 42.5,-15q36.5,-13 38.25,-13.75l1.75,-0.75l3,-16.5l3,-16.5l5.25,-2.25q5.25,-2.25 6.75,-2.5l1.5,-0.25l0.25,2q0.25,2 0.5,15.25l0.25,13.25l11,-2q11,-2 31,-6.5q20,-4.5 29.5,-5.5l9.5,-1l0.75,-4.25q0.75,-4.25 6.5,-19.25l5.75,-15l6.5,-0.25z" id="path2"/>
  <path d="m124.5,91.5l1.5,0l4.75,5.25q4.75,5.25 4.75,6.75l0,1.5l-2.25,1.25q-2.25,1.25 -29.25,14.75q-27,13.5 -29.5,15q-2.5,1.5 -4,2.5l-1.5,1l-4,-0.5q-4,-0.5 -14.25,-6.25l-10.25,-5.75l0.25,-1.25q0.25,-1.25 9.75,-5.25q9.5,-4 16.5,-7q7,-3 16.5,-7q9.5,-4 24.5,-9.5q15,-5.5 16.5,-5.5z" id="path4"/>
  <path d="m360.25,70.25q8.25,-1.25 10.5,-0.5l2.25,0.75l2.25,5.75q2.25,5.75 18.75,33.25q16.5,27.5 21,35.5q4.5,8 18,30q13.5,22 19.75,32.5l6.25,10.5l3.75,-3.5q3.75,-3.5 8.5,-5.75q4.75,-2.25 12.75,-2.25q8,0 14.25,4.25q6.25,4.25 10.25,13.25q4,9 1.5,19.5q-2.5,10.5 -3,11.5l-0.5,1l-5.75,2.75q-5.75,2.75 -18.75,6.25l-13,3.5l-15,-7.5q-15,-7.5 -23.5,-14.5q-8.5,-7 -14.25,-16.25q-5.75,-9.25 -21.25,-34.75q-15.5,-25.5 -21,-34.5q-5.5,-9 -24.25,-41.25q-18.75,-32.25 -24,-31l-5.25,1.25l2.5,5q2.5,5 19.5,33.5q17,28.5 22,37q5,8.5 18.25,31.25q13.25,22.75 22.75,35.25q9.5,12.5 14,16.5q4.5,4 22,15.25l17.5,11.25l-8.5,0.25q-8.5,0.25 -26,-11.25q-17.5,-11.5 -27.25,-24.75q-9.75,-13.25 -14,-23.25l-4.25,-10l-2.75,-2.5q-2.75,-2.5 -16.25,-24.5q-13.5,-22 -31.75,-53.25q-18.25,-31.25 -23.75,-30.5l-5.5,0.75l4.75,9q4.75,9 24.75,43.5q20,34.5 26,44q6,9.5 21,34q15,24.5 20.75,29.75q5.75,5.25 21.25,15.75q15.5,10.5 14,12l-1.5,1.5l-4.75,-0.75q-4.75,-0.75 -18.5,-11q-13.75,-10.25 -21.25,-16.75q-7.5,-6.5 -15.75,-18.25q-8.25,-11.75 -25.25,-40.25q-17,-28.5 -22,-37q-5,-8.5 -19.75,-34.5q-14.75,-26 -20.75,-24.5l-6,1.5l3.25,6.5q3.25,6.5 19.75,34q16.5,27.5 22.5,37q6,9.5 21.25,35q15.25,25.5 18,28q2.75,2.5 8.5,9.75q5.75,7.25 16.25,15.25q10.5,8 19,13.5l8.5,5.5l-10.5,0.5l-10.5,0.5l-9,5.5q-9,5.5 -55,27q-46,21.5 -77,28.5q-31,7 -40.5,11q-9.5,4 -11,4.5q-1.5,0.5 -13,0l-11.5,-0.5l-4.75,8.25q-4.75,8.25 -9,14q-4.25,5.75 -6.25,6l-2,0.25l3.5,-6.75q3.5,-6.75 8.25,-15q4.75,-8.25 2.25,-13.25q-2.5,-5 -6.75,-20.25q-4.25,-15.25 -11,-18.5q-6.75,-3.25 -10.75,-12.25q-4,-9 -7.25,-14.25l-3.25,-5.25l-4,-1.5q-4,-1.5 -12,-2.75l-8,-1.25l0.25,-8q0.25,-8 3.75,-29.5l3.5,-21.5l-5.5,-9q-5.5,-9 -7,-19.5l-1.5,-10.5l8.25,17.25q8.25,17.25 10,19.5q1.75,2.25 -0.75,18.25q-2.5,16 -2.5,28q0,12 4.75,13.25q4.75,1.25 11,5.5q6.25,4.25 9.5,9l3.25,4.75l14.75,2.25l14.75,2.25l-2.25,1.25q-2.25,1.25 -3.25,1.25q-1,0 -9.75,3.75l-8.75,3.75l1.75,1.75q1.75,1.75 7,2q5.25,0.25 7.75,7.75q2.5,7.5 7,19q4.5,11.5 8.25,13.75q3.75,2.25 16.75,-0.25q13,-2.5 26.5,-13q13.5,-10.5 22.5,-19.5q9,-9 19.25,-22.75q10.25,-13.75 19,-27q8.75,-13.25 11.5,-11.5q2.75,1.75 -7.25,16.25q-10,14.5 -27.75,35.75l-17.75,21.25l9.5,-2l9.5,-2l6.25,-9.75q6.25,-9.75 18.25,-28.25q12,-18.5 17.25,-22.75q5.25,-4.25 7.25,-3.5l2,0.75l-3.5,-6.75q-3.5,-6.75 -10.75,-17.5q-7.25,-10.75 -19.25,-29.25q-12,-18.5 -20,-30q-8,-11.5 -20.5,-31q-12.5,-19.5 -18.75,-24.75l-6.25,-5.25l-2.25,2.25q-2.25,2.25 8.75,18.75q11,16.5 17.5,26.5q6.5,10 9.25,15.5l2.75,5.5l2.75,2.5q2.75,2.5 12.75,16q10,13.5 20.75,31l10.75,17.5l-6,-3.25q-6,-3.25 -13.5,-9.75q-7.5,-6.5 -16.75,-19.25q-9.25,-12.75 -21.25,-31.25q-12,-18.5 -20.5,-30.5q-8.5,-12 -15.75,-22.75l-7.25,-10.75l-7.5,2.5q-7.5,2.5 -34.5,15.5q-27,13 -44,20.5q-17,7.5 -18,5q-1,-2.5 8.5,-10q9.5,-7.5 19.5,-14q10,-6.5 47.5,-21.5q37.5,-15 58.5,-23q21,-8 74.5,-23q53.5,-15 61.75,-16.25zm-125.75,48.75q3.5,-0.5 7.75,5.75q4.25,6.25 9,14q4.75,7.75 9.5,14.5q4.75,6.75 11,16q6.25,9.25 10.5,15.5q4.25,6.25 12,18.5q7.75,12.25 12,18.5q4.25,6.25 10.5,15.5q6.25,9.25 9.5,14.5q3.25,5.25 6.5,8.5q3.25,3.25 11.25,11.25l8,8l-4.75,0.75q-4.75,0.75 -9.25,9.75q-4.5,9 -6.75,13.5l-2.25,4.5l-8,3l-8,3l2.75,-5.5q2.75,-5.5 8,-14.75q5.25,-9.25 7.25,-12.25q2,-3 5.5,-2.75l3.5,0.25l-2,-2.25q-2,-2.25 -10.75,-10.5q-8.75,-8.25 -17,-21.5q-8.25,-13.25 -12,-19q-3.75,-5.75 -10,-15.75q-6.25,-10 -8.5,-12q-2.25,-2 -6.75,-8.5q-4.5,-6.5 -8,-12.5q-3.5,-6 -9.25,-14.25q-5.75,-8.25 -9.5,-14q-3.75,-5.75 -9.5,-14q-5.75,-8.25 -7.25,-11.5q-1.5,-3.25 0,-3.5l1.5,-0.25l3.5,-0.5zm23,-7.75l7.5,-1.75l3.25,5.25q3.25,5.25 15.25,25.75q12,20.5 17.5,28q5.5,7.5 18,29q12.5,21.5 21.5,36q9,14.5 14,21q5,6.5 10.25,11.25q5.25,4.75 14.75,12.75l9.5,8l-2.5,0.5q-2.5,0.5 -7.5,-0.5l-5,-1l-9.25,-8.75q-9.25,-8.75 -13.25,-13.25q-4,-4.5 -11.5,-14q-7.5,-9.5 -15.5,-22q-8,-12.5 -12.5,-19q-4.5,-6.5 -12.5,-19q-8,-12.5 -11,-17.5q-3,-5 -9.5,-14.5q-6.5,-9.5 -11,-16q-4.5,-6.5 -11.25,-17.5l-6.75,-11l7.5,-1.75zm52.5,166.25q3.5,-4.5 3.75,-4.25q0.25,0.25 2.25,0.75l2,0.5l2,0.25q2,0.25 0.75,3.25q-1.25,3 -6.75,12.5q-5.5,9.5 -8.5,14q-3,4.5 -4.5,7q-1.5,2.5 -3.25,6.5l-1.75,4l-4,1.25q-4,1.25 -8.5,2.5l-4.5,1.25l1.25,-2.5q1.25,-2.5 7.75,-14q6.5,-11.5 9.5,-15.5q3,-4 6,-8.5q3,-4.5 6.5,-9zm39,-196q1,0 4.75,5.75q3.75,5.75 17,28.5q13.25,22.75 16,27.5q2.75,4.75 13.75,24.25q11,19.5 20.25,34.25q9.25,14.75 19.25,22.75q10,8 13.25,9.75l3.25,1.75l4.25,7.25l4.25,7.25l3.5,1.5q3.5,1.5 13.5,0q10,-1.5 13.25,-4.75q3.25,-3.25 4.25,-8.75q1,-5.5 -1.75,-10.75q-2.75,-5.25 -6.75,-7.25q-4,-2 -10.5,-0.5q-6.5,1.5 -7.25,2.25l-0.75,0.75l-0.5,1q-0.5,1 1,9.5q1.5,8.5 3.25,9.75q1.75,1.25 8.5,0q6.75,-1.25 7.25,-4.75q0.5,-3.5 -0.75,-4.75q-1.25,-1.25 -5.5,0q-4.25,1.25 -4.75,-0.25q-0.5,-1.5 0.25,-2.25l0.75,-0.75l5,0q5,0 6.75,1.75q1.75,1.75 1,6.5q-0.75,4.75 -5.25,6.75q-4.5,2 -10,0.5q-5.5,-1.5 -8.25,-5.75q-2.75,-4.25 -1.25,-12.25q1.5,-8 4.25,-9.75q2.75,-1.75 6.75,-2.25q4,-0.5 10.75,2.25q6.75,2.75 9.25,6.75q2.5,4 1,12.5q-1.5,8.5 -7.25,13.75q-5.75,5.25 -6.75,5.75l-1,0.5l-11,-1.5q-11,-1.5 -25.75,-10.75q-14.75,-9.25 -24.25,-20.75q-9.5,-11.5 -24.25,-37.25q-14.75,-25.75 -18.5,-31.5q-3.75,-5.75 -19,-32.5q-15.25,-26.75 -18.5,-32q-3.25,-5.25 -2.5,-7q0.75,-1.75 2.75,-2.25l2,-0.5l1,0zm6.25,200.75l0.25,-0.25l0.25,0.25q0.25,0.25 7.25,1.5l7,1.25l0,1q0,1 -2.5,2.25q-2.5,1.25 -11.25,6l-8.75,4.75l0.5,-2.5q0.5,-2.5 3.75,-8.25q3.25,-5.75 3.5,-6zm8,-201.75q-0.25,-1.5 2.5,-0.5q2.75,1 10,13.25q7.25,12.25 9.5,16q2.25,3.75 9.5,16q7.25,12.25 10.5,17q3.25,4.75 13.5,23q10.25,18.25 13,22.5q2.75,4.25 7,10.5q4.25,6.25 6.5,10q2.25,3.75 3,7.5l0.75,3.75l-7.25,-8.75q-7.25,-8.75 -10.25,-14.25q-3,-5.5 -9.25,-15.75q-6.25,-10.25 -8.5,-14q-2.25,-3.75 -7,-11q-4.75,-7.25 -6.5,-10.5q-1.75,-3.25 -11,-19.5q-9.25,-16.25 -11.5,-20q-2.25,-3.75 -6.75,-11.25l-4.5,-7.5l-1.5,-2.5q-1.5,-2.5 -1.75,-4z" id="path12"/>
  <path d="m157.5,173.5q6.5,0 11.75,1.75q5.25,1.75 5.5,2l0.25,0.25l-13,0.5q-13,0.5 -18,2.5q-5,2 -9.5,4q-4.5,2 -13,1.5q-8.5,-0.5 -9.5,-1l-1,-0.5l12.5,-3q12.5,-3 17.5,-5q5,-2 7.5,-2.5q2.5,-0.5 9,-0.5z" id="path14"/>
  <path d="m144,260.5q3,0 5.25,2.25q2.25,2.25 1.5,6q-0.75,3.75 -1.25,5q-0.5,1.25 -6,3q-5.5,1.75 -14.75,1q-9.25,-0.75 -9,-1.5l0.25,-0.75l1.5,-1q1.5,-1 3.5,-1.5q2,-0.5 12.75,-1.25l10.75,-0.75l-0.75,-3.25q-0.75,-3.25 -5.75,-3.5q-5,-0.25 -4.5,-1.5q0.5,-1.25 2,-1.75l1.5,-0.5l3,0z" id="path16"/>
  <path d="m162,193.5q3,0 11,2q8,2 9,3l1,1l-10.5,0.5q-10.5,0.5 -13,0.5q-2.5,0 -8.25,1.25q-5.75,1.25 -7,8.25l-1.25,7l8.5,-2.75q8.5,-2.75 12,-3.75l3.5,-1l-4.5,3.5q-4.5,3.5 -7.5,4.75q-3,1.25 -3,2.25l0,1l3,0.75q3,0.75 9.5,1.75l6.5,1l-6.5,0.5q-6.5,0.5 -16.5,-0.5q-10,-1 -12,-1l-2,0l-1.5,-1q-1.5,-1 1,-2q2.5,-1 0,-3q-2.5,-2 -3.75,-4.25q-1.25,-2.25 -2.5,-6q-1.25,-3.75 -3.75,-5.75q-2.5,-2 -3,-3.25l-0.5,-1.25l1.5,0.25q1.5,0.25 12,-0.25q10.5,-0.5 18,-2q7.5,-1.5 10.5,-1.5z" id="path18"/>
  <path d="m150.5,184.5q4.5,0 14.5,1l10,1l1.75,1.25q1.75,1.25 2,2.25q0.25,1 -6.25,-0.75q-6.5,-1.75 -16.5,-1.25q-10,0.5 -16.75,2.25l-6.75,1.75l0.25,-1.25q0.25,-1.25 3.25,-2.75q3,-1.5 6.5,-2.5q3.5,-1 8,-1z" id="path20"/>
  <path d="m197,258.5q4,0 6.25,2.25q2.25,2.25 2.75,3.25q0.5,1 0,7q-0.5,6 -2.25,8.25q-1.75,2.25 -5.75,4.25q-4,2 -8.5,3q-4.5,1 -23.5,1.5q-19,0.5 -19.25,-0.75l-0.25,-1.25l2.75,-2.25q2.75,-2.25 4.25,-2.75q1.5,-0.5 20.5,-1q19,-0.5 23,-2.5q4,-2 4.75,-3.25q0.75,-1.25 0,-5.5q-0.75,-4.25 -1.25,-4.75q-0.5,-0.5 -5.75,0.25q-5.25,0.75 -5.75,1.75q-0.5,1 -0.25,2q0.25,1 3.25,1.5q3,0.5 3,1.5q0,1 -4.25,1l-4.25,0l-0.5,-0.5q-0.5,-0.5 0.25,-4.25q0.75,-3.75 3.75,-6.25q3,-2.5 7,-2.5z" id="path22"/>
  <path d="m252.5,41.25l4.5,-1.25l-0.75,7q-0.75,7 -2,10.75l-1.25,3.75l-11,3.5q-11,3.5 -20.5,6.5q-9.5,3 -15,5q-5.5,2 -16.75,7.25q-11.25,5.25 -12.5,5.5l-1.25,0.25l-5.75,-5.75q-5.75,-5.75 -6,-7.25l-0.25,-1.5l6,-2.25q6,-2.25 15.5,-6.25q9.5,-4 28.5,-11q19,-7 26.5,-10q7.5,-3 12,-4.25z" id="path24"/>
  <path d="m348.5,6.5q11.5,0 15,0.25l3.5,0.25l-1,2.75q-1,2.75 -2.75,5.5q-1.75,2.75 -5.25,10.75q-3.5,8 -3.75,9.5l-0.25,1.5l-14,2.75q-14,2.75 -30.5,5.5l-16.5,2.75l-1.5,-11l-1.5,-11l6,-2.25q6,-2.25 15.5,-6.25q9.5,-4 14,-6q4.5,-2 6.5,-3q2,-1 3.5,-1.5q1.5,-0.5 13,-0.5z" id="path26"/>
 </g>
</svg>